<svg xmlns="http://www.w3.org/2000/svg" height="48" width="48" viewBox="0 0 48 48"><title>48 clear data</title><g stroke-linecap="square" stroke-miterlimit="10" fill="#212121" stroke-linejoin="miter" class="nc-icon-wrapper"> <path d="M40 4L24.762 22.882" stroke="#212121" stroke-width="2" fill="none"></path> <path d="M22.376 22C24.401 22 26.043 23.642 26.043 25.667C25.987 26.225 25.861 26.774 25.668 27.3C23.234 32.676 23.55 38.898 26.517 44H4.04297C4.04297 31.85 10.226 22 22.376 22Z" stroke="#212121" stroke-width="2" fill="none"></path> <path d="M32 27H44" stroke="#212121" stroke-width="2" data-color="color-2" fill="none"></path> <path d="M31 35H44" stroke="#212121" stroke-width="2" data-color="color-2" fill="none"></path> <path d="M34 43H44" stroke="#212121" stroke-width="2" data-color="color-2" fill="none"></path> <path d="M16.985 22.761C16.922 23.115 16.886 23.474 16.877 23.834C16.877 27.884 20.16 31.167 24.21 31.167C24.285 31.167 24.355 31.147 24.43 31.145" stroke="#212121" stroke-width="2" fill="none" data-cap="butt" stroke-linecap="butt"></path> <path d="M11.5339 44C11.2809 41.555 11.3679 39.087 11.7919 36.667" stroke="#212121" stroke-width="2" fill="none" data-cap="butt" stroke-linecap="butt"></path> <path d="M18.327 36.667C18.151 39.133 18.387 41.612 19.025 44" stroke="#212121" stroke-width="2" fill="none" data-cap="butt" stroke-linecap="butt"></path> </g></svg>