<svg xmlns="http://www.w3.org/2000/svg" height="48" width="48" viewBox="0 0 48 48"><title>48 file download 1</title><g stroke-linecap="square" stroke-miterlimit="10" fill="#212121" stroke-linejoin="miter" class="nc-icon-wrapper"><path d="M20 3V16H7" stroke="#212121" stroke-width="2" data-cap="butt" fill="none" stroke-linecap="butt"></path> <path d="M22.5 45H12C9.23858 45 7 42.7699 7 40.0084C7 32.8718 7 20.4779 7 16.2381C7 15.4424 7.31607 14.6839 7.87868 14.1213L18.1213 3.87868C18.6839 3.31607 19.447 3 20.2426 3H36C38.7614 3 41 5.23555 41 7.99698C41 12.51 41 18.9657 41 25" stroke="#212121" stroke-width="2" fill="none"></path> <path d="M34 28C38.9706 28 43 32.0294 43 37C43 41.9706 38.9706 46 34 46C29.0294 46 25 41.9706 25 37C25 32.0294 29.0294 28 34 28Z" stroke="#212121" stroke-width="2" data-color="color-2" fill="none"></path> <path d="M34 33L34 41V40.5" stroke="#212121" stroke-width="2" data-color="color-2" fill="none"></path> <path d="M30 37L34 41L38 37" stroke="#212121" stroke-width="2" data-color="color-2" fill="none"></path></g></svg>